<svg xmlns="http://www.w3.org/2000/svg" width="33.668" height="34" viewBox="0 0 33.668 34">
  <g id="Group_4016" data-name="Group 4016" transform="translate(1.1 0.9)">
    <path id="Path_27284" data-name="Path 27284" d="M886.394,470.488a5.541,5.541,0,0,1-5.23-7.358H866.908a6.488,6.488,0,0,0-6.488,6.489v15.154a6.488,6.488,0,0,0,6.489,6.489h15.154a6.487,6.487,0,0,0,6.487-6.489V470.052A5.53,5.53,0,0,1,886.394,470.488Z" transform="translate(-860.42 -459.262)" fill="none" stroke="#fff" stroke-linecap="round" stroke-linejoin="round" stroke-width="2.2"/>
    <path id="Path_27285" data-name="Path 27285" d="M909.614,525.852h0a1.15,1.15,0,0,0-1.616.158l-4.74,5.819-3.99-3.255a1.144,1.144,0,0,0-.137-.095l-.06-.054h0a1.147,1.147,0,0,0-1.615.158l-5.427,6.652a1.149,1.149,0,0,0,1.779,1.452l4.724-5.792,4.137,3.375a1.13,1.13,0,0,0,.692.255,1.149,1.149,0,0,0,1-.417l5.427-6.652A1.15,1.15,0,0,0,909.614,525.852Z" transform="translate(-886.847 -512.73)" fill="#fff"/>
    <circle id="Ellipse_1678" data-name="Ellipse 1678" cx="3.868" cy="3.868" r="3.868" transform="translate(23.933)" fill="none" stroke="#fff" stroke-miterlimit="10" stroke-width="1.8"/>
  </g>
</svg>
