<svg id="Group_3326" data-name="Group 3326" xmlns="http://www.w3.org/2000/svg" width="27.83" height="27.83" viewBox="0 0 27.83 27.83">
  <path id="document" d="M19.873,0c4.968,0,7.944,2.715,7.957,7.249h0V20.581c0,4.534-2.962,7.249-7.944,7.249H15.47a1.014,1.014,0,0,1,0-2.027h4.4c3.8,0,5.709-1.757,5.709-5.222h0V7.249c0-3.465-1.912-5.222-5.709-5.222H7.944c-3.8,0-5.722,1.757-5.722,5.222h0V20.581c0,3.465,1.925,5.222,5.722,5.222a1.014,1.014,0,0,1,0,2.027C2.976,27.83,0,25.115,0,20.581H0V7.249C0,2.7,2.976,0,7.944,0H19.873Zm-.4,18.8a1.012,1.012,0,1,1,0,2.015H8.321a1.012,1.012,0,1,1,0-2.015H19.469Zm0-5.9a1.157,1.157,0,0,1,1.069.472.945.945,0,0,1,0,1.084,1.156,1.156,0,0,1-1.069.472H8.321a1.014,1.014,0,0,1,0-2.027H19.469ZM12.575,7.016a1.059,1.059,0,0,1,1,1.014,1.059,1.059,0,0,1-1,1.014H8.334a1.059,1.059,0,0,1-1-1.014,1.059,1.059,0,0,1,1-1.014h4.241Z" transform="translate(0 0)" fill="#fff"/>
</svg>
