<svg id="home_6_" data-name="home (6)" xmlns="http://www.w3.org/2000/svg" width="27.831" height="27.831" viewBox="0 0 27.831 27.831">
  <path id="Path_22369" data-name="Path 22369" d="M11.023,23.451H5.457a3.291,3.291,0,0,1-3.279-3.267V9.112a2.045,2.045,0,0,1,.738-1.561l.98-.726a1.089,1.089,0,0,0-1.258-1.73h0l-1,.75A4.211,4.211,0,0,0,0,9.112V20.2a5.469,5.469,0,0,0,5.457,5.457h5.566a1.089,1.089,0,1,0,0-2.178Z" transform="translate(0 2.177)" fill="#fff"/>
  <path id="Path_22370" data-name="Path 22370" d="M25.918,11.131A4.175,4.175,0,0,0,24.2,7.838L15.107,1.117a5.794,5.794,0,0,0-6.839,0l-2.88,1.94a1.068,1.068,0,0,0-.276,1.561A1.268,1.268,0,0,0,6.8,4.874l2.92-2.025a3.293,3.293,0,0,1,3.946,0L22.749,9.57a2.012,2.012,0,0,1,.842,1.586V22.329a3.43,3.43,0,0,1-3.551,3.293h-2.7a.483.483,0,0,1-.5-.464V20.121a3.035,3.035,0,0,0-3.13-2.915H9.767a3.272,3.272,0,0,0-2.223.854,2.812,2.812,0,0,0-.921,2.061v1.927a1.143,1.143,0,0,0,1.184,1.1,1.143,1.143,0,0,0,1.184-1.1V20.121a.681.681,0,0,1,.219-.508.794.794,0,0,1,.544-.212H13.7a.737.737,0,0,1,.763.707h0v5.05a2.783,2.783,0,0,0,2.88,2.659h2.631a5.729,5.729,0,0,0,5.932-5.5Z" transform="translate(1.913 0)" fill="#fff"/>
</svg>
