<svg xmlns="http://www.w3.org/2000/svg" width="22.598" height="28.247" viewBox="0 0 22.598 28.247">
  <path id="profile" d="M8.311,18.032a35.681,35.681,0,0,1,6.1,0,21.088,21.088,0,0,1,3.3.485c2.345.472,3.876,1.4,4.518,2.771a4.239,4.239,0,0,1-.037,3.567c-.654,1.367-2.185,2.3-4.567,2.784a21.126,21.126,0,0,1-3.283.472,27.515,27.515,0,0,1-3.222.137H10.73a1.082,1.082,0,0,1,0-2.15h.845c.847-.01,1.7-.05,2.55-.124a20.1,20.1,0,0,0,2.987-.423c1.691-.373,2.753-.907,3.086-1.615a1.988,1.988,0,0,0,0-1.715c-.333-.721-1.395-1.28-3.049-1.615a19.221,19.221,0,0,0-3.037-.435,31.623,31.623,0,0,0-5.74,0,20.264,20.264,0,0,0-3,.423c-1.691.373-2.74.907-3.086,1.615a2.062,2.062,0,0,0-.185.858,2.112,2.112,0,0,0,.185.87,3.588,3.588,0,0,0,2.469,1.454h0l.143.039a1.08,1.08,0,0,1-.686,2.049A5.468,5.468,0,0,1,.4,24.867,4.189,4.189,0,0,1,.4,21.3c.654-1.4,2.185-2.311,4.543-2.8A22.647,22.647,0,0,1,8.311,18.032ZM8.424.575a7.481,7.481,0,0,1,8.194,1.646,7.605,7.605,0,0,1,1.622,8.252,7.51,7.51,0,0,1-14.459-2.9h0l.007-.327A7.566,7.566,0,0,1,8.424.575Zm2.862,1.587a5.351,5.351,0,0,0-3.8,1.579,5.444,5.444,0,0,0,1.737,8.841,5.356,5.356,0,0,0,5.869-1.167A5.445,5.445,0,0,0,16.259,5.51,5.382,5.382,0,0,0,11.286,2.163Z" fill="#fff"/>
</svg>
